<svg xmlns="http://www.w3.org/2000/svg" viewBox="0 0 720 260" role="img" aria-label="Dumbbell Bench Press">
    <rect width="720" height="260" rx="24" fill="#f9fafb"/>
    <rect x="12" y="12" width="338" height="236" rx="18" fill="#ffffff" stroke="#e5e7eb"/>
    <rect x="370" y="12" width="338" height="236" rx="18" fill="#ffffff" stroke="#e5e7eb"/>
    <text x="181" y="34" text-anchor="middle" font-family="Arial,sans-serif" font-size="20" font-weight="700" fill="#6b7280">START</text><text x="539" y="34" text-anchor="middle" font-family="Arial,sans-serif" font-size="20" font-weight="700" fill="#6b7280">FINISH</text>
    <rect x="50" y="155" width="170" height="18" rx="8" fill="#e5e7eb" stroke="#111827" stroke-width="5"/><circle cx="84" cy="137" r="11" fill="#ffffff" stroke="#111827" stroke-width="6"/><line x1="95" y1="140" x2="150" y2="146" stroke="#111827" stroke-width="7" stroke-linecap="round"/><line x1="115" y1="140" x2="112" y2="136" stroke="#111827" stroke-width="7" stroke-linecap="round"/><line x1="180" y1="143" x2="180" y2="136" stroke="#111827" stroke-width="7" stroke-linecap="round"/><rect x="98" y="126" width="28" height="8" rx="3" fill="#111827" stroke="#111827" stroke-width="1"/><rect x="166" y="126" width="28" height="8" rx="3" fill="#111827" stroke="#111827" stroke-width="1"/>
    <rect x="410" y="155" width="170" height="18" rx="8" fill="#e5e7eb" stroke="#111827" stroke-width="5"/><circle cx="444" cy="137" r="11" fill="#ffffff" stroke="#111827" stroke-width="6"/><line x1="455" y1="140" x2="510" y2="146" stroke="#111827" stroke-width="7" stroke-linecap="round"/><line x1="475" y1="140" x2="478" y2="112" stroke="#111827" stroke-width="7" stroke-linecap="round"/><line x1="540" y1="143" x2="543" y2="112" stroke="#111827" stroke-width="7" stroke-linecap="round"/><rect x="464" y="101" width="28" height="8" rx="3" fill="#111827" stroke="#111827" stroke-width="1"/><rect x="529" y="101" width="28" height="8" rx="3" fill="#111827" stroke="#111827" stroke-width="1"/><defs><marker id="arr" markerWidth="10" markerHeight="10" refX="8" refY="3" orient="auto" markerUnits="strokeWidth"><path d="M0,0 L0,6 L9,3 z" fill="#2563eb"/></marker></defs>
    <line x1="510" y1="139" x2="510" y2="105" stroke="#2563eb" stroke-width="6" stroke-linecap="round" marker-end="url(#arr)"/>
    </svg>