<svg xmlns="http://www.w3.org/2000/svg" viewBox="0 0 720 260" role="img" aria-label="Seated Cable Row">
    <rect width="720" height="260" rx="24" fill="#f9fafb"/>
    <rect x="12" y="12" width="338" height="236" rx="18" fill="#ffffff" stroke="#e5e7eb"/>
    <rect x="370" y="12" width="338" height="236" rx="18" fill="#ffffff" stroke="#e5e7eb"/>
    <text x="181" y="34" text-anchor="middle" font-family="Arial,sans-serif" font-size="20" font-weight="700" fill="#6b7280">START</text><text x="539" y="34" text-anchor="middle" font-family="Arial,sans-serif" font-size="20" font-weight="700" fill="#6b7280">FINISH</text>
    <rect x="45" y="183" width="110" height="17" rx="8" fill="#e5e7eb" stroke="#111827" stroke-width="5"/><circle cx="110" cy="91" r="11" fill="#ffffff" stroke="#111827" stroke-width="6"/><line x1="110" y1="103" x2="115" y2="150" stroke="#111827" stroke-width="7" stroke-linecap="round"/><line x1="115" y1="150" x2="85" y2="193" stroke="#111827" stroke-width="7" stroke-linecap="round"/><line x1="115" y1="150" x2="150" y2="193" stroke="#111827" stroke-width="7" stroke-linecap="round"/><line x1="112" y1="116" x2="145" y2="124" stroke="#111827" stroke-width="7" stroke-linecap="round"/><line x1="145" y1="124" x2="208" y2="124" stroke="#111827" stroke-width="7" stroke-linecap="round"/><line x1="225" y1="124" x2="265" y2="124" stroke="#6b7280" stroke-width="3" stroke-linecap="round"/>
    <rect x="405" y="183" width="110" height="17" rx="8" fill="#e5e7eb" stroke="#111827" stroke-width="5"/><circle cx="470" cy="91" r="11" fill="#ffffff" stroke="#111827" stroke-width="6"/><line x1="470" y1="103" x2="475" y2="150" stroke="#111827" stroke-width="7" stroke-linecap="round"/><line x1="475" y1="150" x2="445" y2="193" stroke="#111827" stroke-width="7" stroke-linecap="round"/><line x1="475" y1="150" x2="510" y2="193" stroke="#111827" stroke-width="7" stroke-linecap="round"/><line x1="472" y1="116" x2="485" y2="124" stroke="#111827" stroke-width="7" stroke-linecap="round"/><line x1="485" y1="124" x2="520" y2="124" stroke="#111827" stroke-width="7" stroke-linecap="round"/><line x1="585" y1="124" x2="625" y2="124" stroke="#6b7280" stroke-width="3" stroke-linecap="round"/><defs><marker id="arr" markerWidth="10" markerHeight="10" refX="8" refY="3" orient="auto" markerUnits="strokeWidth"><path d="M0,0 L0,6 L9,3 z" fill="#2563eb"/></marker></defs>
    <line x1="565" y1="92" x2="523" y2="92" stroke="#2563eb" stroke-width="6" stroke-linecap="round" marker-end="url(#arr)"/>
    </svg>