<svg xmlns="http://www.w3.org/2000/svg" viewBox="0 0 720 260" role="img" aria-label="Triceps Pushdown">
    <rect width="720" height="260" rx="24" fill="#f9fafb"/>
    <rect x="12" y="12" width="338" height="236" rx="18" fill="#ffffff" stroke="#e5e7eb"/>
    <rect x="370" y="12" width="338" height="236" rx="18" fill="#ffffff" stroke="#e5e7eb"/>
    <text x="181" y="34" text-anchor="middle" font-family="Arial,sans-serif" font-size="20" font-weight="700" fill="#6b7280">START</text><text x="539" y="34" text-anchor="middle" font-family="Arial,sans-serif" font-size="20" font-weight="700" fill="#6b7280">FINISH</text>
    <circle cx="180" cy="78" r="12" fill="#ffffff" stroke="#111827" stroke-width="6"/><line x1="180" y1="91" x2="180" y2="145" stroke="#111827" stroke-width="7" stroke-linecap="round"/><line x1="180" y1="145" x2="162" y2="203" stroke="#111827" stroke-width="7" stroke-linecap="round"/><line x1="180" y1="145" x2="198" y2="203" stroke="#111827" stroke-width="7" stroke-linecap="round"/><line x1="180" y1="108" x2="157" y2="158" stroke="#111827" stroke-width="7" stroke-linecap="round"/><line x1="180" y1="108" x2="203" y2="158" stroke="#111827" stroke-width="7" stroke-linecap="round"/><line x1="235" y1="45" x2="235" y2="95" stroke="#6b7280" stroke-width="3" stroke-linecap="round"/><line x1="215" y1="96" x2="255" y2="96" stroke="#111827" stroke-width="5" stroke-linecap="round"/><line x1="180" y1="110" x2="205" y2="123" stroke="#111827" stroke-width="7" stroke-linecap="round"/><line x1="205" y1="123" x2="182" y2="105" stroke="#111827" stroke-width="7" stroke-linecap="round"/>
    <circle cx="540" cy="78" r="12" fill="#ffffff" stroke="#111827" stroke-width="6"/><line x1="540" y1="91" x2="540" y2="145" stroke="#111827" stroke-width="7" stroke-linecap="round"/><line x1="540" y1="145" x2="522" y2="203" stroke="#111827" stroke-width="7" stroke-linecap="round"/><line x1="540" y1="145" x2="558" y2="203" stroke="#111827" stroke-width="7" stroke-linecap="round"/><line x1="540" y1="108" x2="517" y2="158" stroke="#111827" stroke-width="7" stroke-linecap="round"/><line x1="540" y1="108" x2="563" y2="158" stroke="#111827" stroke-width="7" stroke-linecap="round"/><line x1="595" y1="45" x2="595" y2="95" stroke="#6b7280" stroke-width="3" stroke-linecap="round"/><line x1="575" y1="96" x2="615" y2="96" stroke="#111827" stroke-width="5" stroke-linecap="round"/><line x1="540" y1="110" x2="565" y2="123" stroke="#111827" stroke-width="7" stroke-linecap="round"/><line x1="565" y1="123" x2="565" y2="160" stroke="#111827" stroke-width="7" stroke-linecap="round"/><defs><marker id="arr" markerWidth="10" markerHeight="10" refX="8" refY="3" orient="auto" markerUnits="strokeWidth"><path d="M0,0 L0,6 L9,3 z" fill="#2563eb"/></marker></defs>
    <line x1="635" y1="110" x2="635" y2="155" stroke="#2563eb" stroke-width="6" stroke-linecap="round" marker-end="url(#arr)"/>
    </svg>